<?xml version="1.0" encoding="utf-8"?>
<!-- Generator: Adobe Illustrator 16.0.0, SVG Export Plug-In . SVG Version: 6.00 Build 0)  -->
<!DOCTYPE svg PUBLIC "-//W3C//DTD SVG 1.1//EN" "http://www.w3.org/Graphics/SVG/1.1/DTD/svg11.dtd">
<svg version="1.1" id="Layer_1" xmlns="http://www.w3.org/2000/svg" xmlns:xlink="http://www.w3.org/1999/xlink" x="0px" y="0px"
	 width="907px" height="517px" viewBox="40.5 224.5 907 517" enable-background="new 40.5 224.5 907 517" xml:space="preserve">
<path fill="#0E0E0E" d="M602,546.084c7.105,0.689,13.961,1.992,20.938,3.535c1.12,0.244,2.24,0.491,3.396,0.742
	c2.356,0.518,4.713,1.038,7.069,1.559c3.586,0.793,7.174,1.575,10.763,2.356c2.3,0.506,4.6,1.013,6.897,1.52
	c1.063,0.23,2.125,0.462,3.222,0.7c14.076,3.139,14.076,3.139,17.717,5.191c1.473,2.761,1.802,5.195,2,8.322
	c0.078,0.729,0.157,1.459,0.238,2.211c0.23,3.63-0.061,5.808-1.894,8.919c-2.929,2.988-4.197,3.046-8.244,3.05
	c-1.781,0.021-1.781,0.021-3.6,0.04c-1.279-0.014-2.559-0.027-3.877-0.042c-1.975,0.004-1.975,0.004-3.99,0.009
	c-2.784,0.002-5.566-0.014-8.352-0.042c-3.564-0.034-7.128-0.028-10.693-0.009c-3.404,0.014-6.81-0.007-10.215-0.021
	c-1.919,0.008-1.919,0.008-3.877,0.015c-1.781-0.024-1.781-0.024-3.6-0.05c-1.046-0.006-2.091-0.012-3.166-0.019
	c-3.408-0.669-4.625-1.887-6.732-4.698c0-0.687,0-1.373,0-2.08c8.844-0.151,17.561,0.315,26.375,1.04
	c2.445,0.197,4.891,0.393,7.336,0.586c1.065,0.088,2.131,0.175,3.229,0.265c3.028,0.188,6.027,0.225,9.062,0.19
	c-1.211-0.12-2.421-0.239-3.668-0.365c-4.507-0.45-9.014-0.902-13.521-1.356c-1.946-0.195-3.896-0.39-5.843-0.584
	c-2.806-0.279-5.61-0.562-8.415-0.844c-0.866-0.086-1.73-0.172-2.624-0.261c-4.346-0.44-8.632-0.975-12.931-1.793
	c0-2.059,0-4.119,0-6.241c17.489,0.437,34.684,2.785,52,5.201c-12.926-3.439-26.359-5.012-39.553-6.909
	c-1.747-0.253-1.747-0.253-3.529-0.511c-1.044-0.15-2.088-0.298-3.163-0.452c-2.305-0.377-4.507-0.851-6.755-1.491
	c-0.33-2.061-0.66-4.119-1-6.241c5.943-0.379,11.22,0.58,17.035,1.867c5.497,1.199,10.996,1.981,16.569,2.704
	c6.816,0.933,13.586,2.201,20.359,3.417c0.996,0.177,1.993,0.354,3.021,0.537c0.895,0.161,1.788,0.322,2.71,0.488
	c2.411,0.425,2.411,0.425,5.306,0.35c-0.721-0.146-1.44-0.291-2.183-0.441c-21.356-4.333-42.596-9.134-63.817-14.123
	C602,550.266,602,548.206,602,546.084z"/>
<path fill="#0A0A0A" d="M398,546.084c-0.33,2.061-0.66,4.119-1,6.241c-0.988,0.213-0.988,0.213-1.997,0.428
	c-14.281,3.024-14.281,3.024-28.503,6.334c-10.115,2.49-20.32,4.58-30.5,6.762c10.004-1.211,19.973-2.643,29.938-4.161
	c1.148-0.172,2.298-0.345,3.479-0.522c5.606-0.862,11.128-1.813,16.628-3.244c3.336-0.671,6.568-0.522,9.955-0.394
	c0.043,1.732,0.041,3.468,0,5.201c-1.704,1.772-4.018,1.64-6.346,2.018c-1.712,0.281-1.712,0.281-3.458,0.567
	c-1.242,0.198-2.483,0.399-3.764,0.604c-1.896,0.31-1.896,0.31-3.83,0.626c-3.363,0.549-6.729,1.093-10.096,1.636
	c-3.432,0.556-6.863,1.115-10.295,1.673c-6.737,1.099-13.475,2.189-20.213,3.277c9.108-0.752,9.108-0.752,18.19-1.788
	c1.038-0.132,2.077-0.265,3.146-0.401c1.064-0.136,2.129-0.272,3.225-0.412c10.809-1.347,21.563-2.206,32.438-2.601
	c0.043,1.732,0.041,3.468,0,5.201c-2.009,2.09-5.803,1.759-8.563,2.08c-0.765,0.092-1.529,0.185-2.317,0.278
	c-6.336,0.732-12.66,1.144-19.025,1.506c-7.061,0.459-14.079,1.447-21.094,2.377c1.274-0.063,2.55-0.126,3.863-0.19
	c15.042-0.732,30.088-1.332,45.137-1.89c-0.813,2.536-0.813,2.536-2,5.201c-3.105,1.077-5.326,1.197-8.586,1.241
	c-1.717,0.023-1.717,0.023-3.469,0.05c-5.227,0.047-10.451,0.09-15.679,0.112c-2.758,0.015-5.517,0.043-8.274,0.085
	c-3.975,0.063-7.947,0.08-11.922,0.097c-1.233,0.022-2.468,0.047-3.738,0.07c-9.521-0.023-9.521-0.023-12.628-3.043
	c-2.182-3.55-2.118-5.451-1.643-9.602c0.115-1.158,0.229-2.318,0.349-3.515c0.933-5.031,0.933-5.031,2.59-7.343
	c2.632-0.938,5.011-1.594,7.719-2.153c0.772-0.174,1.545-0.348,2.341-0.527c2.479-0.554,4.958-1.082,7.44-1.61
	c1.641-0.362,3.281-0.728,4.922-1.093c6.387-1.417,12.783-2.783,19.191-4.093c5.115-1.052,10.167-2.36,15.217-3.709
	C389.349,546.31,393.347,545.895,398,546.084z"/>
<path fill="#0F0F0F" d="M532,398.366c3.925,0.664,6.611,2.654,9.875,4.945c0.848,0.592,0.848,0.592,1.713,1.195
	c1.809,1.264,3.61,2.536,5.412,3.808c1.181,0.828,2.361,1.655,3.543,2.481c2.343,1.64,4.684,3.281,7.022,4.926
	c7.033,4.941,14.109,9.818,21.185,14.699c5.174,3.587,10.301,7.243,15.42,10.914c6.362,4.561,12.751,9.081,19.143,13.597
	c19.602,13.854,19.602,13.854,25.25,17.916c3.445,2.478,6.9,4.904,10.462,7.201c8.483,5.564,8.483,5.564,9.987,9.165
	c0.301,2.324,0.301,2.324-0.012,5.9c-3.475-1.333-6.38-2.884-9.422-5.076c-0.848-0.605-1.694-1.212-2.566-1.835
	c-0.912-0.66-1.822-1.319-2.762-1.998c-1.992-1.425-3.984-2.852-5.977-4.278c-1.552-1.113-1.552-1.113-3.135-2.249
	c-5.072-3.634-10.169-7.232-15.265-10.832c-2.106-1.49-4.214-2.979-6.32-4.47c-7.44-5.26-14.886-10.514-22.331-15.769
	c-11.352-8.011-22.694-16.033-34.037-24.058c-5.183-3.667-10.365-7.334-15.549-11c-2.683-1.897-5.365-3.794-8.048-5.693
	c-1.332-0.943-1.332-0.943-2.69-1.904c-0.627-0.443-1.254-0.888-1.898-1.343C531.33,402.548,531.66,400.489,532,398.366z"/>
<path fill="#0F0F0F" d="M466.258,398.726c0.575,0.226,1.149,0.45,1.742,0.681c0.33,1.374,0.66,2.746,1,4.161
	c-7.343,5.648-14.811,11.03-22.438,16.254c-7.719,5.316-15.375,10.704-22.938,16.254c-6.773,4.97-13.604,9.824-20.515,14.586
	c-6.299,4.344-12.554,8.751-18.799,13.176c-1.539,1.09-1.539,1.09-3.107,2.2c-5.491,3.887-10.979,7.78-16.462,11.681
	c-2.856,2.03-5.715,4.055-8.574,6.083c-1.4,0.994-2.8,1.988-4.197,2.985c-1.955,1.395-3.913,2.782-5.873,4.169
	c-0.588,0.422-1.177,0.844-1.782,1.279c-4.086,2.877-4.086,2.877-6.314,2.877c0.09-4.659,0.529-6.758,3.625-10.208
	c4.658-3.718,9.613-7.028,14.52-10.379c6.119-4.191,12.173-8.484,18.23-12.767c1.217-0.86,2.434-1.72,3.65-2.58
	c3.063-2.165,6.126-4.33,9.188-6.496c1.731-1.224,3.463-2.447,5.194-3.67c10.646-7.522,21.288-15.054,31.903-22.624
	c5.782-4.123,11.581-8.212,17.438-12.218c2.717-1.906,5.393-3.852,8.063-5.828c1.282-0.938,1.282-0.938,2.591-1.896
	c1.708-1.25,3.407-2.513,5.102-3.787c0.782-0.571,1.564-1.141,2.371-1.729c1.048-0.778,1.048-0.778,2.117-1.573
	C464,398.366,464,398.366,466.258,398.726z"/>
<path fill="#0E0E0E" d="M456,380.682c0.66,0,1.32,0,2,0c2,3.121,2,3.121,1.833,5.207c-1.014,2.525-2.073,3.473-4.165,5.119
	c-0.706,0.563-1.411,1.126-2.139,1.708c-0.772,0.599-1.546,1.198-2.342,1.815c-0.804,0.636-1.604,1.272-2.433,1.927
	c-2.577,2.036-5.165,4.054-7.756,6.071c-1.671,1.305-3.341,2.609-5.012,3.914c-2.503,1.953-5.007,3.903-7.515,5.849
	c-6.382,4.964-12.68,10.029-18.956,15.134c-5.56,4.518-11.182,8.939-16.834,13.329c-5.682,4.413-11.302,8.903-16.914,13.41
	c-5.572,4.468-11.165,8.911-16.761,13.349c-1.291,1.024-2.581,2.048-3.871,3.074c-1.646,1.31-3.299,2.614-4.951,3.917
	c-0.914,0.722-1.827,1.446-2.77,2.19c-2.092,1.536-4.093,2.757-6.418,3.856c-0.411-3.172-0.641-5.25,0-8.322
	c2.166-2.857,4.893-4.762,7.75-6.827c1.211-0.926,1.211-0.926,2.445-1.87c1.716-1.31,3.438-2.609,5.17-3.897
	c3.417-2.555,6.777-5.183,10.14-7.818c2.515-1.97,5.036-3.928,7.558-5.888c4.689-3.659,9.321-7.39,13.938-11.15
	c7.108-5.788,14.305-11.44,21.539-17.056c6.274-4.879,12.467-9.859,18.635-14.884c6.776-5.505,13.649-10.871,20.543-16.216
	c1.209-0.939,1.209-0.939,2.443-1.896c0.718-0.555,1.437-1.11,2.176-1.683C454.941,381.831,454.941,381.831,456,380.682z"/>
<path fill="#0F0F0F" d="M541,381.722c5.257,0.415,8.198,3.37,12.063,6.762c1.348,1.152,2.694,2.301,4.044,3.45
	c0.663,0.567,1.325,1.135,2.01,1.718c2.535,2.144,5.138,4.183,7.76,6.21c4.717,3.646,9.398,7.334,14.063,11.053
	c19.601,15.616,19.601,15.616,39.315,31.073c4.728,3.701,9.405,7.463,14.088,11.222c2.244,1.801,4.492,3.598,6.742,5.395
	c1.1,0.88,2.198,1.763,3.293,2.651c2.44,1.972,4.895,3.88,7.439,5.704c2.264,1.652,4.306,3.154,6.184,5.266
	c0.563,4.096,0.563,4.096,0,7.282c-4.265-1.508-7.294-3.728-10.813-6.631c-1.158-0.947-2.316-1.892-3.478-2.836
	c-0.605-0.496-1.212-0.99-1.837-1.5c-3.151-2.548-6.358-5.018-9.562-7.496c-6.691-5.195-13.29-10.507-19.871-15.854
	c-5.152-4.183-10.351-8.289-15.59-12.351c-5.881-4.583-11.683-9.276-17.497-13.946c-6.635-5.327-13.298-10.608-20.012-15.828
	c-6.821-5.323-13.575-10.742-20.343-16.14C539.66,385.207,540.32,383.491,541,381.722z"/>
<path fill="#0E0E0E" d="M550,364.038c4.461,1.476,7.328,4.022,10.625,7.348c4.67,4.582,9.473,8.883,14.473,13.076
	c3.282,2.785,6.503,5.636,9.716,8.509c0.587,0.525,1.174,1.05,1.777,1.59c2.408,2.156,4.814,4.313,7.222,6.472
	c5.826,5.223,11.649,10.435,17.626,15.474c5.049,4.266,9.961,8.681,14.862,13.125c3.603,3.263,7.221,6.498,10.875,9.693
	c1.604,1.405,3.201,2.818,4.797,4.233c1.986,1.746,3.994,3.468,6.023,5.161c7.486,6.462,7.486,6.462,8.129,11.609
	c-0.041,1.181-0.082,2.36-0.125,3.576c-4.232-1.453-6.743-3.497-9.938-6.697c-4.202-4.09-8.502-7.863-13.063-11.509
	c-5.364-4.303-10.4-8.847-15.371-13.641c-3.432-3.24-7.021-6.248-10.625-9.277c-5.467-4.674-10.771-9.545-16.106-14.378
	c-2.976-2.688-5.967-5.354-8.959-8.02c-0.571-0.509-1.144-1.019-1.73-1.543c-2.933-2.612-5.869-5.222-8.809-7.824
	c-6.542-5.8-12.986-11.677-19.289-17.757c-1.969-1.977-1.969-1.977-4.109-2.979C548.506,368.023,549,366.118,550,364.038z"/>
<path fill="#0F0F0F" d="M447,364.038c0.99,0.343,1.98,0.687,3,1.041c0.797,2.292,0.797,2.292,1,5.201
	c-1.922,2.454-1.922,2.454-4.75,4.941c-0.504,0.451-1.008,0.902-1.526,1.366c-1.56,1.386-3.137,2.744-4.724,4.096
	c-0.877,0.752-1.753,1.504-2.656,2.28c-1.771,1.505-3.548,3.007-5.328,4.502c-3.563,3.048-7.04,6.187-10.516,9.341
	c-4.282,3.885-8.583,7.724-13,11.443c-5.034,4.242-9.925,8.641-14.811,13.067c-4.581,4.146-9.197,8.247-13.842,12.317
	c-4.605,4.04-9.173,8.127-13.738,12.216c-4.5,4.017-9.075,7.922-13.707,11.775c-2.525,2.157-2.525,2.157-5.086,4.982
	C345,464.943,345,464.943,343,464.943c-0.239-5.151-0.14-7.966,3.129-11.971c2.878-2.717,5.831-5.275,8.871-7.794
	c0.874-0.747,1.748-1.493,2.648-2.263c1.775-1.518,3.56-3.027,5.348-4.531c5.467-4.674,10.771-9.545,16.107-14.379
	c4.693-4.238,9.426-8.434,14.148-12.638c1.785-1.592,3.567-3.186,5.349-4.784c5.232-4.687,10.473-9.349,15.837-13.874
	c4.41-3.724,8.716-7.562,13-11.442c1.273-1.149,2.55-2.3,3.823-3.449c1.849-1.667,3.692-3.335,5.529-5.015
	c1.646-1.501,3.301-2.99,4.959-4.474c0.943-0.855,1.887-1.711,2.859-2.593C445.398,365.176,446.188,364.615,447,364.038z"/>
<path fill="#101010" d="M559,346.354c3.029,1.407,5.085,2.97,7.391,5.44c0.936,0.99,0.936,0.99,1.889,2
	c0.649,0.699,1.302,1.397,1.972,2.116c4.487,4.749,8.968,9.377,13.863,13.674c3.307,3.041,6.345,6.367,9.444,9.63
	c2.715,2.787,5.55,5.364,8.445,7.94c3.064,2.839,5.901,5.902,8.781,8.94c1.991,2.042,4.027,3.958,6.151,5.847
	c4.093,3.648,7.832,7.612,11.617,11.597c2.733,2.807,5.589,5.408,8.504,8.005c3.476,3.2,6.689,6.669,9.941,10.11
	c0.979,0.998,1.957,1.996,2.938,2.991c2.832,3.036,3.054,3.729,3.125,8.063c-0.021,1.158-0.041,2.318-0.063,3.511
	c-4.577-2.509-7.767-5.795-11.313-9.623c-4.13-4.383-8.296-8.59-12.797-12.564c-3.036-2.792-5.831-5.829-8.676-8.83
	c-1.991-2.042-4.028-3.958-6.152-5.847c-3.173-2.829-6.126-5.815-9.063-8.907c-2.876-3.027-5.759-5.955-8.875-8.712
	c-4.122-3.664-7.886-7.654-11.691-11.663c-3.419-3.584-6.943-6.961-10.641-10.236c-2.449-2.237-4.702-4.653-6.984-7.071
	c-3.133-3.203-6.471-6.164-9.809-9.13C557.875,348.694,557.875,348.694,559,346.354z"/>
<path fill="#0F0F0F" d="M438,347.394c1.32,0.687,2.64,1.373,4,2.081c-0.49,4.612-1.859,6.586-5.063,9.752
	c-0.817,0.813-1.636,1.628-2.478,2.467c-2.744,2.614-5.538,5.154-8.363,7.672c-2.462,2.294-4.774,4.71-7.098,7.156
	c-2.876,3.028-5.759,5.955-8.875,8.712c-4.123,3.663-7.889,7.656-11.696,11.667c-3.374,3.537-6.854,6.862-10.503,10.093
	c-3.042,2.806-5.849,5.849-8.703,8.858c-2.648,2.718-5.435,5.227-8.258,7.745c-2.776,2.566-5.349,5.327-7.953,8.079
	c-2.625,2.688-5.392,5.177-8.188,7.668c-1.648,1.514-3.179,3.079-4.699,4.73C348,446.219,348,446.219,346,446.219
	c0.016-5.094,0.258-9.106,3.66-12.979c1.113-1.115,2.249-2.206,3.402-3.275c0.888-0.872,0.888-0.872,1.794-1.76
	c1.692-1.65,3.409-3.267,5.144-4.871c0.767-0.711,1.534-1.421,2.324-2.154c1.255-1.138,2.516-2.269,3.785-3.389
	c3.035-2.792,5.831-5.829,8.676-8.83c1.991-2.042,4.028-3.958,6.152-5.847c3.173-2.829,6.126-5.815,9.063-8.907
	c3.542-3.73,7.176-7.229,11.004-10.634c2.258-2.091,4.373-4.292,6.496-6.53c2.729-2.877,5.485-5.631,8.438-8.258
	c4.08-3.638,7.813-7.589,11.587-11.564C430.879,353.773,434.396,350.555,438,347.394z"/>
<path fill="#101010" d="M834,661.554"/>
<path fill="#0F0F0F" d="M568,329.709c3.519,1.529,5.418,3.497,7.875,6.502c4.452,5.29,9.157,10.246,13.988,15.162
	c2.94,3.016,5.752,6.079,8.44,9.341c4.309,5.189,9.002,9.957,13.695,14.766c9.629,9.867,9.629,9.867,13.547,14.63
	c2.524,3.066,5.177,5.907,7.969,8.712c0.776,0.78,1.553,1.561,2.353,2.364c1.597,1.596,3.201,3.183,4.813,4.763
	c5.508,5.576,9.013,10.161,9.508,18.424c-0.093,1.03-0.093,1.03-0.188,2.081c-0.66,0-1.32,0-2,0c-1.34-1.418-1.34-1.418-2.938-3.447
	c-3.472-4.26-7.196-8.17-11.018-12.09c-2.585-2.667-5.065-5.371-7.42-8.259c-3.673-4.485-7.695-8.583-11.744-12.698
	c-2.839-2.906-5.539-5.869-8.131-9.017c-4.48-5.394-9.373-10.342-14.25-15.344c-5.512-5.653-10.932-11.296-15.967-17.415
	c-2.214-2.644-4.571-5.089-6.972-7.552c-0.864-0.891-1.729-1.781-2.62-2.698c-0.642-0.655-1.281-1.309-1.941-1.983
	C566.875,330.879,566.875,330.879,568,329.709z"/>
<path fill="#0F0F0F" d="M430,329.709c1.32,1.373,2.64,2.747,4,4.161c-1.484,3.626-3.462,5.869-6.188,8.582
	c-2.855,2.851-5.533,5.773-8.113,8.891c-4.327,5.195-9.023,9.965-13.738,14.775c-3.921,4.031-7.617,8.171-11.215,12.516
	c-3.518,4.125-7.355,7.924-11.141,11.78c-3.136,3.221-6.154,6.477-9.027,9.951c-3.886,4.688-8.086,9.009-12.328,13.345
	c-1.497,1.531-2.992,3.064-4.484,4.6c-0.651,0.667-1.304,1.332-1.976,2.019c-1.854,1.944-1.854,1.944-3.4,4.293
	c-0.459,0.604-0.917,1.209-1.39,1.832c-0.66,0-1.32,0-2,0c-0.416-3.764-0.149-6.796,1-10.403c3.146-4.01,6.664-7.367,10.347-10.828
	c1.792-1.794,3.401-3.683,5.021-5.646c4.485-5.436,9.406-10.388,14.315-15.406c3.386-3.483,6.682-6.981,9.785-10.739
	c4.65-5.623,9.778-10.74,14.859-15.938c4.188-4.313,8.184-8.704,12.022-13.353c2.568-3.039,5.314-5.875,8.087-8.712
	c0.541-0.558,1.082-1.116,1.639-1.69C427.382,332.394,428.69,331.051,430,329.709z"/>
<path fill="#101010" d="M510.938,470.275c1.513,0.678,3.025,1.354,4.539,2.028c0.759,0.339,1.518,0.678,2.299,1.03
	c3.31,1.448,6.668,2.743,10.037,4.028c6.392,2.472,12.771,4.975,19.125,7.542c0.885,0.347,1.768,0.693,2.678,1.052
	c1.226,0.499,1.226,0.499,2.476,1.01c1.097,0.438,1.097,0.438,2.215,0.888C556,488.87,556,488.87,557,491.99
	c-0.495,1.545-0.495,1.545-1,3.121c-5.773-0.582-10.486-2.285-15.813-4.616c-1.758-0.751-3.516-1.498-5.273-2.243
	c-1.413-0.602-1.413-0.602-2.854-1.215c-5.643-2.376-11.318-4.662-16.997-6.944c-1.118-0.455-2.237-0.909-3.392-1.377
	c-1.056-0.424-2.111-0.848-3.198-1.284c-0.936-0.378-1.871-0.755-2.836-1.144c-4.671-1.667-7.485-2.461-12.086-0.32
	c-0.871,0.39-1.741,0.781-2.639,1.184c-1.441,0.652-1.441,0.652-2.912,1.316c-2.212,0.917-4.427,1.826-6.645,2.727
	c-1.76,0.718-1.76,0.718-3.554,1.452c-1.192,0.489-2.386,0.977-3.614,1.477c-1.183,0.485-2.363,0.968-3.58,1.465
	c-2.36,0.966-4.724,1.927-7.086,2.883c-2.396,0.977-4.783,1.977-7.164,2.995c-1.729,0.729-1.729,0.729-3.494,1.471
	c-1.032,0.443-2.064,0.885-3.128,1.341c-2.808,0.854-4.05,0.872-6.735-0.207c-0.33-1.374-0.66-2.746-1-4.161
	c2.996-1.397,5.996-2.784,9-4.161c1.04-0.478,2.08-0.955,3.152-1.447c6.865-3.108,13.765-6.004,20.795-8.683
	c3.417-1.306,6.8-2.661,10.154-4.135c0.664-0.289,1.329-0.58,2.016-0.877c1.831-0.804,3.656-1.622,5.479-2.439
	C499.624,465.803,504.503,467.262,510.938,470.275z"/>
<path fill="#101010" d="M421,313.065c0.99,0.343,1.98,0.687,3,1.04c0.75,2.288,0.75,2.288,1,5.202c-1.625,2.491-1.625,2.491-4,5.006
	c-0.838,0.912-1.676,1.824-2.539,2.763c-0.813,0.869-1.624,1.739-2.461,2.633c-1.136,1.312-2.262,2.633-3.375,3.967
	c-0.557,0.664-1.113,1.327-1.688,2.012c-2.941,3.559-5.841,7.156-8.745,10.747c-2.88,3.544-5.813,7.021-8.817,10.452
	c-3.032,3.469-5.923,7.013-8.75,10.663c-3.244,4.175-6.612,8.165-10.125,12.093c-5.67,6.342-10.932,12.993-16.098,19.787
	c-1.094,1.415-2.24,2.786-3.402,4.14c-0.66,0-1.32,0-2,0c-0.468-5.748-0.051-9.94,3.27-14.69c2.775-3.218,5.757-6.219,8.73-9.236
	c1.186-1.348,2.354-2.712,3.5-4.097c0.539-0.645,1.078-1.29,1.633-1.954c2.911-3.541,5.791-7.109,8.676-10.675
	c2.879-3.544,5.813-7.021,8.816-10.452c3.032-3.468,5.923-7.013,8.75-10.663c4.152-5.338,8.55-10.381,13.035-15.413
	c2.809-3.168,5.543-6.396,8.25-9.659C418.729,315.466,419.855,314.256,421,313.065z"/>
<path fill="#101010" d="M576,313.065c4.017,0.544,5.591,2.472,8.188,5.591c0.789,0.943,1.578,1.886,2.392,2.856
	c3.08,3.81,6.097,7.67,9.104,11.541c3.158,3.952,6.508,7.705,9.853,11.484c2.392,2.772,4.657,5.612,6.901,8.513
	c3.223,4.156,6.569,8.123,10.063,12.029c4.343,4.857,8.433,9.868,12.426,15.043c1.938,2.47,3.952,4.834,6.013,7.192
	c4.495,5.339,5.331,9.112,5.063,16.254c-9.072-9.331-17.767-19.021-25.727-29.396c-2.646-3.321-5.439-6.468-8.273-9.615
	c-4.459-4.952-8.638-10.054-12.723-15.348c-2.933-3.678-6.045-7.163-9.172-10.657c-3.973-4.465-7.671-9.11-11.328-13.858
	c-1.744-2.303-1.744-2.303-3.777-4.349C575.375,316.576,575.375,316.576,576,313.065z"/>
<path fill="#111111" d="M518.299,492.044c3.368,1.231,6.743,2.438,10.119,3.644c7.197,2.574,14.391,5.157,21.582,7.746
	c-0.495,2.574-0.495,2.574-1,5.201c-7.999-0.517-14.958-2.864-22.5-5.592c-1.172-0.415-2.344-0.831-3.551-1.26
	c-1.148-0.407-2.297-0.815-3.48-1.236c-1.112-0.395-2.228-0.79-3.375-1.196c-1.883-0.681-3.761-1.381-5.625-2.115
	c-9.902-3.806-17.291-1.929-27.031,1.713c-2.121,0.761-4.243,1.523-6.366,2.282c-1.031,0.375-2.063,0.75-3.124,1.135
	c-4.031,1.461-8.073,2.883-12.135,4.255c-1.211,0.419-2.421,0.839-3.668,1.271c-3.189,0.755-5.043,0.67-8.145-0.296
	c-0.33-1.374-0.66-2.746-1-4.161c7.229-3.359,14.616-5.809,22.188-8.192c5.985-1.895,11.854-4.059,17.72-6.319
	C499.491,485.183,508.167,488.323,518.299,492.044z"/>
<path fill="#111111" d="M412,295.38c0.66,0,1.32,0,2,0c2,3.121,2,3.121,1.891,5.539c-1.144,3.574-2.885,5.88-5.141,8.83
	c-0.441,0.582-0.882,1.163-1.337,1.762c-4.067,5.339-8.229,10.603-12.376,15.874c-4.013,5.116-7.893,10.324-11.725,15.587
	c-4.48,6.152-9.091,12.124-13.888,18.013c-3.188,4.01-6.214,8.141-9.204,12.312c-3.011,4.154-3.011,4.154-5.222,5.305
	c-0.3-10.076,2.944-15.317,9-22.886c0.94-1.224,1.878-2.449,2.813-3.678c2.027-2.661,4.067-5.311,6.117-7.953
	c2.869-3.703,5.693-7.441,8.508-11.19c4.517-6.007,9.128-11.927,13.772-17.828c4.035-5.143,7.942-10.375,11.72-15.725
	C409.908,297.984,410.948,296.677,412,295.38z"/>
<path fill="#101010" d="M585,295.38c3.012,1.375,4.806,2.74,6.848,5.413c0.518,0.669,1.033,1.338,1.566,2.027
	c0.544,0.72,1.088,1.441,1.648,2.183c0.573,0.749,1.147,1.497,1.739,2.268c1.74,2.272,3.47,4.552,5.197,6.834
	c0.935,1.228,1.869,2.454,2.805,3.682c5.705,7.507,11.339,15.076,16.979,22.636c2.801,3.753,5.607,7.497,8.445,11.217
	c0.502,0.658,1.003,1.316,1.519,1.993c0.927,1.216,1.856,2.429,2.789,3.641c5.622,7.376,7.637,11.935,7.463,21.328
	c-4.148-4.086-7.528-8.504-10.938-13.264c-4.598-6.34-9.309-12.552-14.188-18.66c-5.244-6.566-10.37-13.21-15.418-19.939
	c-2.197-2.927-4.413-5.834-6.646-8.733c-0.62-0.813-1.241-1.628-1.883-2.466c-1.382-1.773-2.798-3.517-4.233-5.242
	c-1.117-1.366-1.117-1.366-2.259-2.758c-0.682-0.812-1.363-1.623-2.065-2.458c-1.369-2.418-1.369-2.418-1.146-5.193
	C584,297.461,584,297.461,585,295.38z"/>
<path fill="#151515" d="M516.75,508.895c2.109,0.668,4.219,1.336,6.328,2.003c1.012,0.326,2.021,0.651,3.063,0.985
	c3.772,1.204,7.562,2.332,11.357,3.448c1.083,0.32,2.166,0.64,3.281,0.972c0.731,0.216,1.465,0.432,2.219,0.654
	c-0.33,2.06-0.66,4.119-1,6.241c-7.168-0.654-13.793-2.594-20.688-4.682c-2.212-0.662-4.424-1.322-6.637-1.982
	c-0.971-0.292-1.939-0.585-2.939-0.888c-12.852-3.619-23.286-0.873-35.674,3c-2.941,0.92-5.889,1.819-8.84,2.708
	c-0.667,0.214-1.333,0.43-2.021,0.653c-2.946,0.885-4.722,1.371-7.653,0.267c-0.512-0.382-1.021-0.763-1.549-1.155
	c0-1.374,0-2.746,0-4.161c6.987-2.143,13.979-4.267,20.979-6.37c1.824-0.55,3.647-1.105,5.47-1.666
	c1.973-0.606,3.95-1.194,5.928-1.781c1.59-0.481,1.59-0.481,3.211-0.973C500.634,504.434,508.072,506.039,516.75,508.895z"/>
<path fill="#121212" d="M410,456.621c0.563,2.731,0.563,2.731,0,6.242c-1.65,1.477-1.65,1.477-3.871,2.93
	c-0.819,0.541-1.64,1.079-2.482,1.636c-4.402,2.789-8.821,5.538-13.271,8.243c-1.949,1.192-3.898,2.382-5.848,3.576
	c-0.943,0.577-1.889,1.153-2.859,1.747c-11.529,7.061-22.968,14.285-34.297,21.688c-0.596,0.387-1.19,0.772-1.805,1.172
	c-1.663,1.081-3.324,2.167-4.984,3.253C338,508.635,338,508.635,336,508.635c-0.044-3.245-0.03-5.322,1-8.322
	c2.591-2.624,5.632-4.232,8.813-5.981c1.841-1.078,3.681-2.156,5.521-3.235c0.944-0.542,1.889-1.082,2.861-1.639
	c4.334-2.513,8.564-5.193,12.807-7.869c1.653-1.033,3.307-2.065,4.961-3.097c1.235-0.771,1.235-0.771,2.495-1.558
	c17.896-11.169,17.896-11.169,20.178-12.587c1.697-1.064,3.387-2.146,5.068-3.236c0.89-0.573,1.779-1.146,2.696-1.734
	c0.809-0.527,1.616-1.055,2.45-1.595C407,456.621,407,456.621,410,456.621z"/>
<path fill="#101010" d="M589,455.581c4.151,1.566,7.814,3.717,11.563,6.111c1.336,0.843,2.67,1.686,4.005,2.528
	c0.713,0.452,1.426,0.903,2.159,1.368c4.081,2.578,8.18,5.125,12.273,7.677c1.716,1.072,3.433,2.143,5.148,3.214
	c2.94,1.837,5.884,3.671,8.827,5.502c3.013,1.873,6.021,3.753,9.025,5.637c1.456,0.911,2.913,1.82,4.371,2.729
	c2.504,1.562,5.003,3.129,7.502,4.698c0.792,0.494,1.585,0.984,2.4,1.492c0.73,0.461,1.463,0.923,2.217,1.398
	c0.979,0.614,0.979,0.614,1.979,1.24c1.529,1.137,1.529,1.137,2.529,3.217c0.04,2.081,0.043,4.161,0,6.242
	c-4.268-1.601-8.025-3.85-11.875-6.307c-1.348-0.851-2.695-1.703-4.043-2.552c-0.683-0.433-1.365-0.864-2.068-1.312
	c-3.059-1.933-6.13-3.846-9.201-5.759c-1.246-0.779-2.494-1.558-3.741-2.336c-3.776-2.359-7.557-4.711-11.336-7.063
	c-1.695-1.059-3.389-2.119-5.078-3.185c-4.264-2.684-8.543-5.307-12.898-7.823c-0.832-0.495-1.663-0.987-2.521-1.497
	c-1.576-0.934-3.164-1.847-4.767-2.734c-5.127-3.087-5.127-3.087-6.173-6.357C589.012,459.401,589.012,459.401,589,455.581z"/>
<path fill="#111111" d="M592,474.306c5.95,1.75,11.188,4.744,16.625,7.737c1.012,0.552,2.023,1.106,3.066,1.675
	c7.504,4.115,14.941,8.35,22.356,12.636c4.805,2.766,9.646,5.409,14.576,7.925c13.493,6.986,13.493,6.986,16.375,9.559
	c0.625,3.511,0.625,3.511,0,6.241c-3.702-0.607-6.479-1.671-9.738-3.58c-1.341-0.773-1.341-0.773-2.709-1.566
	c-0.944-0.554-1.891-1.108-2.864-1.679c-6.504-3.757-13.002-7.467-19.688-10.859c-7.557-3.846-14.924-8.035-22.289-12.264
	c-5.185-2.97-10.396-5.829-15.711-8.541C592,479.185,592,476.781,592,474.306z"/>
<path fill="#111111" d="M407,474.306c0,2.403,0,4.806,0,7.282c-0.604,0.325-1.205,0.647-1.826,0.981
	c-10.271,5.526-20.532,11.06-30.611,16.963c-6.197,3.628-12.463,7.046-18.848,10.304c-5.479,2.801-10.817,5.829-16.141,8.941
	c-2.574,1.3-2.574,1.3-5.574,1.3c-0.383-4.715-0.383-4.715,1.265-6.81c6.501-4.745,13.473-8.464,20.548-12.175
	c1.303-0.69,2.604-1.381,3.902-2.073c2.577-1.369,5.155-2.738,7.734-4.101c4.661-2.479,9.298-5.001,13.926-7.545
	c0.742-0.406,1.484-0.812,2.249-1.231c3.608-1.979,7.206-3.978,10.794-5.998c0.7-0.393,1.4-0.786,2.121-1.192
	c1.31-0.736,2.616-1.476,3.922-2.221C404.778,474.306,404.778,474.306,407,474.306z"/>
<path fill="#121212" d="M594,490.95c6.054,1.983,11.848,4.292,17.625,7.021c0.782,0.366,1.564,0.731,2.37,1.107
	c5.983,2.806,11.934,5.688,17.872,8.597c3.2,1.559,6.418,3.076,9.641,4.583c0.969,0.454,1.938,0.908,2.938,1.375
	c1.899,0.89,3.802,1.774,5.705,2.658c5.789,2.71,11.354,5.681,16.851,8.986c0,2.061,0,4.12,0,6.242
	c-3.716-0.638-6.8-1.739-10.211-3.39c-0.99-0.475-1.979-0.951-3-1.441c-1.044-0.509-2.088-1.018-3.164-1.541
	c-1.078-0.519-2.155-1.038-3.266-1.573c-6.96-3.358-13.902-6.752-20.849-10.142c-3.877-1.854-7.783-3.624-11.698-5.385
	c-18.29-8.232-18.29-8.232-20.813-10.857C593.959,495.111,593.957,493.03,594,490.95z"/>
<path fill="#111111" d="M403,278.736c0.99,0.343,1.98,0.687,3,1.04c0.852,2.584,0.852,2.584,1,6.242
	c-1.487,3.159-3.547,5.82-5.625,8.582c-1.21,1.672-2.42,3.345-3.629,5.019c-0.624,0.851-1.248,1.702-1.891,2.577
	c-2.872,3.943-5.645,7.958-8.418,11.974c-0.532,0.767-1.065,1.534-1.614,2.323c-4.279,6.162-8.501,12.365-12.69,18.593
	c-2.435,3.61-4.902,7.191-7.418,10.74c-0.495,0.698-0.99,1.396-1.5,2.116c-0.4,0.506-0.802,1.012-1.215,1.533c-0.33,0-0.66,0-1,0
	c-0.517-10.037,2.552-16.673,8.438-24.382c1.088-1.463,2.172-2.929,3.255-4.397c0.552-0.746,1.104-1.492,1.672-2.261
	c2.595-3.567,5.053-7.229,7.512-10.897C389.416,297.81,396.196,288.268,403,278.736z"/>
<path fill="#111111" d="M594,278.736c0.99,0,1.98,0,3,0c1.741,2.324,3.28,4.617,4.813,7.087c0.984,1.539,1.972,3.074,2.962,4.608
	c0.783,1.216,0.783,1.216,1.585,2.457c2.756,4.183,5.668,8.243,8.578,12.31c20.962,29.366,20.962,29.366,22.188,35.369
	c0.168,0.793,0.335,1.584,0.508,2.402c0.366,2.344,0.366,2.344,0.366,6.505c-0.66,0-1.32,0-2,0c-1.262-1.6-1.262-1.6-2.688-3.848
	c-0.529-0.823-1.059-1.646-1.604-2.492c-0.563-0.89-1.128-1.78-1.709-2.696c-3.971-6.16-7.972-12.24-12.375-18.075
	c-3.378-4.485-6.592-9.029-9.699-13.719c-2.507-3.724-5.088-7.389-7.676-11.053c-0.473-0.669-0.944-1.338-1.432-2.028
	c-0.45-0.636-0.901-1.274-1.365-1.931c-0.637-0.905-0.637-0.905-1.286-1.829c-0.969-1.348-1.984-2.661-3.011-3.962
	c-1.155-1.823-1.155-1.823-0.905-5.139C593,279.776,593,279.776,594,278.736z"/>
<path fill="#101010" d="M405,490.95c0,2.06,0,4.119,0,6.241c-1.454,0.756-1.454,0.756-2.938,1.528
	c-0.641,0.333-1.279,0.666-1.939,1.01c-1.432,0.744-2.864,1.489-4.297,2.231c-3.706,1.926-7.408,3.857-11.101,5.813
	c-0.688,0.363-1.377,0.725-2.086,1.099c-1.296,0.684-2.591,1.369-3.883,2.061c-3.376,1.774-6.771,3.353-10.293,4.789
	c-6.952,2.839-13.727,6.091-20.526,9.298c-1.99,0.938-3.981,1.875-5.975,2.811c-1.783,0.837-3.564,1.675-5.347,2.516
	C334,531.521,334,531.521,333,531.521c0-2.403,0-4.807,0-7.282c4.282-2.089,8.565-4.178,12.848-6.267
	c1.45-0.707,2.899-1.413,4.35-2.12c9.93-4.844,19.861-9.683,29.804-14.499c1.052-0.51,2.103-1.018,3.187-1.544
	c2.852-1.376,5.706-2.746,8.563-4.112c0.956-0.462,1.913-0.927,2.898-1.404c0.915-0.437,1.829-0.873,2.772-1.321
	c0.812-0.389,1.621-0.779,2.456-1.182C402,490.95,402,490.95,405,490.95z"/>
<path fill="#121212" d="M596,506.554c3.406,0.632,6.504,1.522,9.73,2.816c1.328,0.53,1.328,0.53,2.686,1.07
	c0.915,0.369,1.829,0.739,2.771,1.119c0.896,0.358,1.791,0.716,2.714,1.083c4.432,1.773,8.847,3.582,13.248,5.436
	c4.386,1.833,8.815,3.469,13.288,5.054c5.883,2.118,11.551,4.465,17.181,7.242c3.396,1.632,6.862,2.954,10.383,4.267
	c0,2.06,0,4.12,0,6.242c-5.074-0.572-9.24-1.779-13.938-3.837c-1.341-0.577-2.682-1.152-4.022-1.727
	c-1.018-0.437-1.018-0.437-2.054-0.883c-2.991-1.261-6.02-2.409-9.049-3.567c-9.684-3.719-19.242-7.771-28.817-11.78
	c-0.646-0.271-1.288-0.539-1.952-0.816c-1.775-0.743-3.551-1.487-5.326-2.232c-1.927-0.79-3.876-1.523-5.841-2.205
	C596.67,511.434,596.34,509.029,596,506.554z"/>
<path fill="#111111" d="M403,506.554c0,2.061,0,4.12,0,6.242c-8.813,4.389-17.838,7.949-27,11.442
	c-2.543,0.971-5.085,1.945-7.625,2.926c-0.638,0.246-1.275,0.492-1.932,0.745c-4.067,1.585-8.088,3.269-12.097,5.009
	c-0.979,0.424-1.956,0.849-2.965,1.285c-1.922,0.837-3.842,1.683-5.758,2.536c-4.934,2.15-9.284,3.678-14.625,4.144
	c-0.313-2.406-0.313-2.406,0-5.201c3.705-2.756,7.778-4.39,12-6.111c0.989-0.406,0.989-0.406,1.998-0.819
	c5.229-2.137,10.474-4.226,15.721-6.313c3.439-1.384,6.86-2.812,10.281-4.247c6.397-2.671,12.817-5.285,19.25-7.866
	c0.918-0.373,1.836-0.745,2.781-1.129c0.86-0.344,1.723-0.688,2.608-1.041c1.153-0.464,1.153-0.464,2.329-0.937
	C400,506.554,400,506.554,403,506.554z"/>
<path fill="#101010" d="M598,520.077c6.871,1.647,13.483,3.571,20.082,6.156c6.966,2.688,14.063,5.007,21.117,7.425
	c3.602,1.236,7.201,2.475,10.801,3.714c1.17,0.399,2.34,0.8,3.545,1.212c5.603,1.929,11.085,3.91,16.455,6.46
	c0,2.06,0,4.119,0,6.241c-1.771-0.425-3.543-0.86-5.313-1.3c-0.986-0.242-1.974-0.483-2.988-0.731
	c-3.876-1.142-7.589-2.544-11.364-3.998c-7.042-2.646-14.167-5.044-21.271-7.494c-1.583-0.547-3.165-1.094-4.748-1.642
	c-0.773-0.267-1.547-0.534-2.345-0.811c-1.525-0.527-3.052-1.056-4.577-1.582c-3.385-1.17-6.771-2.334-10.158-3.486
	c-1.09-0.372-2.18-0.743-3.302-1.126c-1.408-0.476-1.408-0.476-2.846-0.964C599,527.359,599,527.359,598,526.319
	C597.959,524.238,597.957,522.158,598,520.077z"/>
<path fill="#111111" d="M401,521.117c0,1.717,0,3.434,0,5.202c-5.181,2.553-10.341,4.686-15.789,6.546
	c-1.336,0.458-2.673,0.918-4.009,1.376c-1.036,0.354-1.036,0.354-2.093,0.715c-3.484,1.196-6.963,2.411-10.441,3.626
	c-2.116,0.736-4.232,1.473-6.35,2.208c-1.431,0.498-2.859,0.996-4.289,1.494c-13.32,4.647-13.32,4.647-19.791,6.749
	c-0.735,0.238-1.473,0.479-2.229,0.726C334,550.245,334,550.245,330,550.245c0-2.061,0-4.119,0-6.241
	c1.623-0.633,3.249-1.26,4.875-1.886c0.905-0.352,1.81-0.701,2.742-1.062c2.645-0.95,5.274-1.814,7.957-2.638
	c6.173-1.902,12.263-4.047,18.363-6.184c8.321-2.896,16.645-5.79,25-8.582c0.768-0.262,1.534-0.523,2.325-0.792
	C394.712,521.72,397.341,521.117,401,521.117z"/>
<path fill="#131313" d="M514.438,525.084c0.813,0.188,1.625,0.375,2.461,0.568c6.395,1.491,12.766,3.092,19.103,4.829
	c-0.33,2.06-0.66,4.119-1,6.241c-8.074-0.757-15.766-2.521-23.647-4.442c-0.976-0.23-1.949-0.46-2.953-0.697
	c-0.869-0.211-1.739-0.423-2.636-0.64c-5.725-0.955-10.817-0.414-16.432,0.939c-1.834,0.43-1.834,0.43-3.705,0.867
	c-2.555,0.615-5.108,1.23-7.664,1.846c-1.219,0.284-2.438,0.569-3.692,0.863c-1.107,0.268-2.216,0.534-3.356,0.809
	c-2.756,0.43-4.324,0.379-6.913-0.586c-0.33-1.717-0.66-3.433-1-5.201c4.21-1.054,8.423-2.09,12.641-3.111
	c1.431-0.35,2.857-0.702,4.285-1.061C491.908,523.31,502.317,522.14,514.438,525.084z"/>
<path fill="#111111" d="M398,546.084c-0.33,2.061-0.66,4.119-1,6.241c-0.988,0.213-0.988,0.213-1.997,0.428
	c-15.717,3.354-15.717,3.354-31.362,7.044c-3.232,0.756-6.47,1.448-9.719,2.122c-1.095,0.23-2.189,0.458-3.318,0.694
	c-2.213,0.461-4.428,0.915-6.645,1.362c-1.013,0.212-2.025,0.424-3.068,0.643c-1.376,0.28-1.376,0.28-2.779,0.566
	c-1.045,0.328-1.045,0.328-2.11,0.664c-0.33,0.688-0.66,1.374-1,2.081c-2.31,0-4.62,0-7,0c-0.66,3.433-1.32,6.865-2,10.402
	c-0.33,0-0.66,0-1,0c0.114-2.168,0.242-4.335,0.375-6.502c0.069-1.206,0.14-2.413,0.211-3.656c0.623-5.061,0.623-5.061,2.414-7.526
	c2.632-0.938,5.011-1.594,7.719-2.153c0.772-0.174,1.545-0.348,2.341-0.527c2.479-0.554,4.959-1.082,7.44-1.61
	c1.641-0.362,3.281-0.728,4.922-1.093c6.388-1.417,12.783-2.781,19.191-4.093c5.116-1.052,10.167-2.36,15.217-3.709
	C389.349,546.31,393.347,545.895,398,546.084z"/>
<path fill="#121212" d="M600,533.601c6.483,1.3,12.909,2.745,19.313,4.421c0.854,0.223,1.709,0.445,2.589,0.675
	c7.132,1.884,14.202,3.958,21.268,6.095c6.986,2.106,14.006,4.053,21.057,5.911c5.672,1.514,5.672,1.514,6.775,2.664
	c0.041,2.08,0.043,4.161,0,6.241c-20.312-4.352-40.31-10.162-60.25-16.059c-0.868-0.258-1.737-0.514-2.632-0.778
	c-5.863-1.757-5.863-1.757-8.118-2.928C600,537.782,600,535.723,600,533.601z"/>
<path fill="#111111" d="M399,533.601c0,2.061,0,4.12,0,6.242c-9.979,3.385-19.924,6.597-30.137,9.146
	c-4.123,1.044-8.224,2.179-12.32,3.324c-1,0.279-1,0.279-2.021,0.564c-2.721,0.761-5.441,1.524-8.161,2.292
	c-1.925,0.543-3.85,1.082-5.773,1.621c-1.124,0.317-2.247,0.635-3.404,0.961c-3.051,0.781-6.076,1.366-9.182,1.855
	c0-2.06,0-4.119,0-6.241c10.765-3.725,21.509-6.977,32.567-9.614c5.854-1.407,11.567-3.061,17.292-4.969
	c3.732-1.212,7.488-2.304,11.266-3.361c1.24-0.348,2.479-0.696,3.758-1.057C396,533.601,396,533.601,399,533.601z"/>
<path fill="#121212" d="M494,450.38c0.495,2.06,0.495,2.06,1,4.161c-1.454,0.755-1.454,0.755-2.938,1.527
	c-0.641,0.333-1.28,0.668-1.939,1.01c-1.431,0.745-2.861,1.487-4.293,2.231c-3.73,1.937-7.457,3.882-11.174,5.85
	c-0.697,0.368-1.396,0.735-2.113,1.114c-1.322,0.697-2.643,1.396-3.961,2.101c-3.842,2.02-7.707,3.679-11.752,5.205
	c-2.38,0.946-4.589,2.137-6.83,3.395c-4.3,2.299-8.271,3.614-13,4.616c-0.66-1.717-1.32-3.433-2-5.202
	c12.903-6.799,25.908-13.369,39-19.765c0.833-0.408,1.666-0.816,2.525-1.237c2.214-1.075,4.436-2.134,6.662-3.184
	c0.961-0.467,0.961-0.467,1.94-0.945C488.427,449.731,490.578,448.861,494,450.38z"/>
<path fill="#101010" d="M476,415.011c0.495,3.089,0.495,3.089,1,6.242c-18.874,12.032-18.874,12.032-27.289,17.229
	c-3.536,2.19-7.031,4.438-10.504,6.738c-0.813,0.534-1.627,1.066-2.465,1.615c-1.591,1.045-3.176,2.1-4.754,3.166
	c-0.723,0.471-1.443,0.942-2.188,1.428c-0.638,0.425-1.274,0.85-1.933,1.288c-2.34,0.982-3.532,0.605-5.868-0.256
	c-0.33-1.373-0.66-2.746-1-4.161c8.03-5.808,16.451-10.906,24.875-16.06c2.79-1.709,5.579-3.418,8.367-5.132
	c0.669-0.411,1.339-0.821,2.028-1.244c4.961-3.056,9.807-6.269,14.597-9.609C473,415.011,473,415.011,476,415.011z"/>
<path fill="#111111" d="M524,415.011c3.313,1.309,6.339,2.779,9.387,4.657c0.845,0.518,1.688,1.037,2.559,1.572
	c0.904,0.563,1.811,1.125,2.742,1.705c0.944,0.586,1.89,1.17,2.862,1.773c3.153,1.96,6.302,3.929,9.45,5.898
	c1.186,0.739,2.37,1.477,3.556,2.214c3.007,1.874,6.007,3.759,9.001,5.651c1.169,0.738,2.34,1.47,3.512,2.201
	c1.646,1.027,3.282,2.067,4.921,3.107c0.943,0.595,1.888,1.19,2.859,1.801C577,447.259,577,447.259,578,450.38
	c-0.66,1.03-1.32,2.06-2,3.121c-3.923-0.713-6.933-2.635-10.352-4.702c-0.612-0.369-1.226-0.739-1.855-1.118
	c-6.775-4.103-13.477-8.333-20.168-12.58c-1.218-0.77-2.435-1.54-3.652-2.311c-6.015-3.805-12.013-7.637-17.973-11.537
	C522.875,416.181,522.875,416.181,524,415.011z"/>
<path fill="#111111" d="M515,431.655c4.002,1.581,7.762,3.485,11.566,5.522c0.628,0.336,1.256,0.672,1.901,1.019
	c2.032,1.09,4.063,2.183,6.094,3.276c0.689,0.371,1.38,0.741,2.09,1.122c11.555,6.213,23.005,12.605,34.349,19.228
	c-0.33,1.717-0.66,3.433-1,5.201c-4.939-0.571-8.829-2.257-13.172-4.645c-0.676-0.365-1.354-0.727-2.049-1.102
	c-2.183-1.176-4.355-2.362-6.529-3.551c-1.491-0.808-2.982-1.616-4.475-2.422c-10.357-5.617-20.638-11.371-30.775-17.408
	C513.66,435.836,514.32,433.777,515,431.655z"/>
<path fill="#111111" d="M482,431.655c2.223,0.938,2.223,0.938,4,2.081c0,1.374,0,2.746,0,4.161
	c-8.016,4.527-16.048,9.023-24.09,13.499c-1.91,1.064-3.818,2.133-5.728,3.2c-3.087,1.726-6.18,3.438-9.277,5.14
	c-1.761,0.971-3.517,1.955-5.271,2.938c-1.072,0.586-2.146,1.173-3.253,1.778c-1.417,0.784-1.417,0.784-2.862,1.583
	c-2.736,1.073-3.842,1.043-6.521-0.053c-0.33-1.373-0.66-2.746-1-4.161c0.925-0.507,1.851-1.015,2.804-1.537
	c3.53-1.937,7.061-3.876,10.588-5.816c1.568-0.86,3.137-1.72,4.704-2.58c11.309-6.194,11.309-6.194,22.476-12.657
	c0.917-0.543,1.834-1.087,2.777-1.646c1.646-0.983,3.283-1.982,4.912-2.995C478.43,433.297,478.43,433.297,482,431.655z"/>
<path fill="#111111" d="M506,449.339c4.643,0.682,8.62,2.593,12.828,4.637c0.748,0.357,1.497,0.715,2.268,1.085
	c2.389,1.144,4.771,2.294,7.154,3.446c1.587,0.762,3.174,1.526,4.762,2.286c2.297,1.103,4.596,2.205,6.892,3.31
	c5.013,2.409,10.04,4.778,15.098,7.084c4.5,2.081,4.5,2.081,9,4.161c-0.495,2.574-0.495,2.574-1,5.201
	c-4,1.387-5.245,0.281-9.039-1.524c-0.594-0.28-1.188-0.559-1.8-0.846c-1.933-0.912-3.859-1.838-5.786-2.765
	c-1.325-0.629-2.65-1.258-3.976-1.887c-3.808-1.806-7.604-3.632-11.399-5.461c-0.946-0.455-1.893-0.909-2.867-1.378
	c-8.112-3.907-16.174-7.915-24.134-12.146C504.66,452.824,505.32,451.108,506,449.339z"/>
<path fill="#101010" d="M603,262.092c4.309,1.564,6.108,4.879,8.438,8.712c0.873,1.408,1.747,2.817,2.621,4.227
	c0.469,0.76,0.937,1.521,1.418,2.304c1.633,2.616,3.311,5.195,4.996,7.774c1.177,1.82,2.353,3.641,3.527,5.461
	c0.563,0.852,1.128,1.704,1.709,2.582c4.704,7.375,6.729,14.13,6.291,23.035c-3.473-3.288-5.804-6.959-8.188-11.118
	c-3.254-5.582-6.66-11.026-10.245-16.384c-0.387-0.579-0.771-1.157-1.168-1.753c-1.561-2.339-3.119-4.677-4.703-6.999
	c-1.119-1.641-2.225-3.294-3.328-4.946c-0.648-0.956-1.297-1.913-1.965-2.898c-1.538-2.977-1.871-4.592-1.402-7.915
	C601.66,263.485,602.32,262.799,603,262.092z"/>
<path fill="#121212" d="M394,262.092c3.883,1.841,3.883,1.841,4.938,3.995c0.09,3.197-1.084,4.473-2.938,6.994
	c-2.615,3.68-5.102,7.369-7.438,11.249c-5.311,8.758-10.875,17.336-16.5,25.876c-0.391,0.596-0.779,1.193-1.183,1.808
	c-0.934,1.41-1.904,2.795-2.881,4.173c-0.33,0-0.66,0-1,0c0.117-1.409,0.244-2.818,0.375-4.227c0.104-1.176,0.104-1.176,0.211-2.377
	c0.932-6.206,2.745-11.08,6.082-16.303c0.357-0.565,0.716-1.13,1.085-1.713c1.136-1.79,2.285-3.572,3.436-5.353
	c0.752-1.182,1.502-2.362,2.252-3.545C384.854,275.73,389.377,268.878,394,262.092z"/>
<path fill="#0E0E0E" d="M517.625,541.923c1.792,0.298,1.792,0.298,3.621,0.602c2.919,0.485,5.837,0.979,8.754,1.479
	c-0.66,2.06-1.32,4.119-2,6.241c-5.905-0.468-11.72-1.128-17.563-2.146c-9.871-1.587-18.35-0.847-28.106,1.125
	c-4.08,0.793-7.258,1.256-11.331-0.021c-0.33-1.717-0.66-3.433-1-5.202c3.789-0.707,7.582-1.396,11.375-2.08
	c1.061-0.198,2.122-0.397,3.215-0.602C496.148,539.257,506.076,539.941,517.625,541.923z"/>
<path fill="#1A1A1A" d="M523,557.527c-0.875,5.07-0.875,5.07-2,6.241c-1.351,0.097-2.707,0.122-4.061,0.118
	c-0.861,0-1.723,0-2.608,0c-0.936-0.006-1.871-0.013-2.835-0.018c-0.953-0.001-1.906-0.003-2.888-0.004
	c-3.059-0.006-6.114-0.02-9.171-0.033c-2.067-0.005-4.135-0.01-6.201-0.014c-5.079-0.012-10.157-0.029-15.236-0.051
	c-0.66-1.717-1.32-3.433-2-5.201C491.104,553.211,507.52,555.413,523,557.527z"/>
<path fill="#111111" d="M489.828,570.912c1.191-0.001,2.385-0.003,3.613-0.004c1.885,0.006,1.885,0.006,3.809,0.012
	c1.241-0.004,2.482-0.008,3.762-0.012c1.796,0.002,1.796,0.002,3.629,0.004c1.1,0.001,2.197,0.002,3.329,0.004
	c2.792,0.124,5.314,0.515,8.03,1.175c-0.66,1.717-1.32,3.433-2,5.201c-9.57,0-19.14,0-29,0c-0.66-1.717-1.32-3.433-2-5.201
	C484.785,570.233,487.418,570.915,489.828,570.912z"/>
<path fill="#191919" d="M490,585.614c6.27,0,12.54,0,19,0c-1,3.12-1,3.12-4,5.201c-2.559,0.313-2.559,0.313-5.438,0.325
	c-0.947,0.019-1.896,0.034-2.871,0.054c-3.091-0.434-4.472-1.255-6.691-3.499C490,587.008,490,586.321,490,585.614z"/>
<path fill="#191919" d="M615,260.011c2.188-0.39,2.188-0.39,5,0c4.328,3.787,5.298,6.511,5.813,12.353
	c0.084,1.777,0.154,3.554,0.188,5.332c-3.352-3.185-5.507-6.503-7.75-10.598c-0.613-1.109-1.228-2.218-1.859-3.36
	C615,261.052,615,261.052,615,260.011z"/>
<path fill="#1D1D1D" d="M384,260.011c-0.935,1.973-1.873,3.945-2.813,5.917c-0.522,1.099-1.045,2.196-1.582,3.328
	c-1.44,2.906-2.844,5.733-4.605,8.44c-0.66,0-1.32,0-2,0c0.229-2.17,0.484-4.336,0.75-6.501c0.14-1.207,0.278-2.414,0.422-3.658
	C375.617,261.666,378.146,259.335,384,260.011z"/>
<path fill="#363636" d="M347,467.024c0.66,0.343,1.32,0.687,2,1.041c-1.623,1.777-3.293,3.51-5,5.201c-0.66,0-1.32,0-2,0
	c0,1.717,0,3.433,0,5.201c0.66,0.343,1.32,0.687,2,1.04c-0.99,0.344-1.98,0.687-3,1.041c-0.723-7.396-0.723-7.396,1.336-10.033
	C344,469.104,344,469.104,347,467.024z"/>
<text transform="matrix(0.9613 0 0 1 72.062 701.7764)" font-family="'BloodCrow'" font-size="104.0264" letter-spacing="13.523">M</text>
<text transform="matrix(0.9613 0 0 1 175.6621 701.7764)" fill="#ED3B24" font-family="'BloodCrow'" font-size="104.0264" letter-spacing="13.523">A</text>
<text transform="matrix(0.9613 0 0 1 259.061 701.7764)" font-family="'BloodCrow'" font-size="104.0264" letter-spacing="13.523">STERCL</text>
<text transform="matrix(0.9613 0 0 1 721.5547 701.7764)" fill="#4D54A4" font-family="'BloodCrow'" font-size="104.0264" letter-spacing="13.523">ASS</text>
</svg>
